%TF.GenerationSoftware,KiCad,Pcbnew,7.0.8*%
%TF.CreationDate,2024-03-21T14:49:46+01:00*%
%TF.ProjectId,so-dimm-debugger-programmer,736f2d64-696d-46d2-9d64-656275676765,REV.02*%
%TF.SameCoordinates,Original*%
%TF.FileFunction,Soldermask,Bot*%
%TF.FilePolarity,Negative*%
%FSLAX46Y46*%
G04 Gerber Fmt 4.6, Leading zero omitted, Abs format (unit mm)*
G04 Created by KiCad (PCBNEW 7.0.8) date 2024-03-21 14:49:46*
%MOMM*%
%LPD*%
G01*
G04 APERTURE LIST*
%ADD10C,0.800000*%
%ADD11C,5.000000*%
%ADD12R,1.700000X1.700000*%
%ADD13O,1.700000X1.700000*%
%ADD14C,0.001000*%
%ADD15C,0.400000*%
%ADD16O,1.050000X2.100000*%
%ADD17O,1.000000X2.000000*%
G04 APERTURE END LIST*
D10*
%TO.C,H3*%
X139881205Y-164100547D03*
X141207030Y-164649722D03*
X138555380Y-164649722D03*
X141756205Y-165975547D03*
D11*
X139881205Y-165975547D03*
D10*
X138006205Y-165975547D03*
X141207030Y-167301372D03*
X138555380Y-167301372D03*
X139881205Y-167850547D03*
%TD*%
D12*
%TO.C,J10*%
X95250000Y-143383000D03*
D13*
X95250000Y-145923000D03*
X95250000Y-148463000D03*
X95250000Y-151003000D03*
X95250000Y-153543000D03*
X95250000Y-156083000D03*
X95250000Y-158623000D03*
X95250000Y-161163000D03*
%TD*%
D10*
%TO.C,H2*%
X96574205Y-38497547D03*
X97900030Y-39046722D03*
X95248380Y-39046722D03*
X98449205Y-40372547D03*
D11*
X96574205Y-40372547D03*
D10*
X94699205Y-40372547D03*
X97900030Y-41698372D03*
X95248380Y-41698372D03*
X96574205Y-42247547D03*
%TD*%
D12*
%TO.C,J3*%
X135509000Y-119634000D03*
D13*
X135509000Y-117094000D03*
X135509000Y-114554000D03*
X135509000Y-112014000D03*
%TD*%
D12*
%TO.C,J8*%
X133096000Y-45720000D03*
D13*
X135636000Y-45720000D03*
X133096000Y-48260000D03*
X135636000Y-48260000D03*
X133096000Y-50800000D03*
X135636000Y-50800000D03*
X133096000Y-53340000D03*
X135636000Y-53340000D03*
X133096000Y-55880000D03*
X135636000Y-55880000D03*
X133096000Y-58420000D03*
X135636000Y-58420000D03*
X133096000Y-60960000D03*
X135636000Y-60960000D03*
X133096000Y-63500000D03*
X135636000Y-63500000D03*
X133096000Y-66040000D03*
X135636000Y-66040000D03*
X133096000Y-68580000D03*
X135636000Y-68580000D03*
X133096000Y-71120000D03*
X135636000Y-71120000D03*
X133096000Y-73660000D03*
X135636000Y-73660000D03*
X133096000Y-76200000D03*
X135636000Y-76200000D03*
X133096000Y-78740000D03*
X135636000Y-78740000D03*
X133096000Y-81280000D03*
X135636000Y-81280000D03*
X133096000Y-83820000D03*
X135636000Y-83820000D03*
%TD*%
D14*
%TO.C,J1*%
X116000205Y-116825547D03*
X116000205Y-50025547D03*
%TD*%
D10*
%TO.C,H1*%
X96701205Y-164100547D03*
X98027030Y-164649722D03*
X95375380Y-164649722D03*
X98576205Y-165975547D03*
D11*
X96701205Y-165975547D03*
D10*
X94826205Y-165975547D03*
X98027030Y-167301372D03*
X95375380Y-167301372D03*
X96701205Y-167850547D03*
%TD*%
D12*
%TO.C,J13*%
X95300800Y-125577600D03*
D13*
X95300800Y-128117600D03*
X95300800Y-130657600D03*
X95300800Y-133197600D03*
%TD*%
D12*
%TO.C,J9*%
X135636000Y-127254000D03*
D13*
X135636000Y-129794000D03*
X135636000Y-132334000D03*
X135636000Y-134874000D03*
%TD*%
D12*
%TO.C,J2*%
X126619000Y-104775000D03*
D13*
X126619000Y-102235000D03*
X126619000Y-99695000D03*
X126619000Y-97155000D03*
X126619000Y-94615000D03*
X126619000Y-92075000D03*
%TD*%
D15*
%TO.C,J6*%
X124668800Y-163299600D03*
X130448800Y-163299600D03*
D16*
X123238800Y-162799600D03*
D17*
X123238800Y-166979600D03*
X131878800Y-166979600D03*
D16*
X131878800Y-162799600D03*
%TD*%
D12*
%TO.C,J12*%
X135509000Y-104775000D03*
D13*
X135509000Y-102235000D03*
X135509000Y-99695000D03*
X135509000Y-97155000D03*
X135509000Y-94615000D03*
X135509000Y-92075000D03*
%TD*%
D12*
%TO.C,J5*%
X120269000Y-143383000D03*
D13*
X120269000Y-145923000D03*
X120269000Y-148463000D03*
X120269000Y-151003000D03*
X120269000Y-153543000D03*
X120269000Y-156083000D03*
X120269000Y-158623000D03*
X120269000Y-161163000D03*
%TD*%
D12*
%TO.C,J4*%
X126619000Y-119634000D03*
D13*
X126619000Y-117094000D03*
X126619000Y-114554000D03*
X126619000Y-112014000D03*
%TD*%
D15*
%TO.C,J7*%
X104854800Y-163299600D03*
X110634800Y-163299600D03*
D16*
X103424800Y-162799600D03*
D17*
X103424800Y-166979600D03*
X112064800Y-166979600D03*
D16*
X112064800Y-162799600D03*
%TD*%
D10*
%TO.C,H4*%
X139881205Y-38497547D03*
X141207030Y-39046722D03*
X138555380Y-39046722D03*
X141756205Y-40372547D03*
D11*
X139881205Y-40372547D03*
D10*
X138006205Y-40372547D03*
X141207030Y-41698372D03*
X138555380Y-41698372D03*
X139881205Y-42247547D03*
%TD*%
M02*
