M48
INCH
T1C0.0079
T2C0.0118
T3C0.0157
T4C0.0197
T5C0.0236
T6C0.0394
T7C0.0984
%
G90
G05
T1
X4.0921Y-5.5445
X4.1771Y-5.2695
X4.1771Y-5.4995
X4.212Y-6.338
X4.2421Y-6.2995
X4.2532Y-6.3181
X4.3921Y-5.2795
X4.4563Y-3.7603
X4.4579Y-3.8337
X4.4581Y-3.4085
X4.471Y-3.5395
X4.4712Y-3.4726
X4.4721Y-3.4345
X4.4721Y-3.4995
X4.4721Y-3.5695
X4.4721Y-3.6095
X4.4721Y-3.6395
X4.4721Y-3.6795
X4.4721Y-3.7795
X4.4721Y-3.8545
X4.4725Y-3.7141
X4.7971Y-4.4895
X4.7971Y-4.5195
X4.8821Y-3.6695
X4.8996Y-3.647
X4.9175Y-3.6299
X4.9346Y-3.612
X4.992Y-6.338
X5.0271Y-6.2995
X5.0318Y-6.3212
T2
X3.852Y-4.992
X3.868Y-4.892
X4.0321Y-5.7995
X4.0871Y-5.8345
X4.0871Y-5.8745
X4.0871Y-5.9645
X4.1221Y-6.344
X4.1421Y-5.5745
X4.1771Y-6.0395
X4.1771Y-6.0695
X4.2071Y-6.0095
X4.2071Y-6.0395
X4.2071Y-6.0695
X4.2321Y-5.5895
X4.2335Y-5.4204
X4.2421Y-5.8445
X4.3221Y-6.1195
X4.3221Y-6.1445
X4.3471Y-6.1195
X4.3471Y-6.1445
X4.3721Y-6.1195
X4.3721Y-6.1445
X4.3721Y-6.349
X4.3971Y-6.1195
X4.3971Y-6.1445
X4.4221Y-5.5945
X4.465Y-5.46
X4.4821Y-4.0945
X4.4921Y-5.5195
X4.5071Y-4.1245
X4.5171Y-4.1795
X4.5171Y-4.2145
X4.5304Y-5.0412
X4.5721Y-5.0495
X4.585Y-5.495
X4.604Y-5.302
X4.6471Y-5.3345
X4.662Y-5.54
X4.68Y-4.2707
X4.6921Y-4.5877
X4.6921Y-4.6212
X4.7Y-5.54
X4.74Y-5.54
X4.77Y-5.1
X4.77Y-5.136
X4.7926Y-2.4232
X4.7926Y-2.4567
X4.829Y-5.6913
X4.8421Y-3.8395
X4.8421Y-3.8745
X4.888Y-6.344
X5.0621Y-5.7195
X5.0871Y-3.3895
X5.0871Y-3.4245
X5.0871Y-3.4595
X5.0871Y-3.4945
X5.0871Y-3.5295
X5.0953Y-3.8495
X5.1121Y-3.9795
X5.1121Y-4.0445
X5.1121Y-4.1045
X5.1121Y-4.1645
X5.1321Y-5.7245
X5.1471Y-3.8495
X5.166Y-6.35
X5.1871Y-3.8495
X5.1971Y-3.6445
X5.2771Y-3.5295
X5.3121Y-3.4945
T3
X3.77Y-2.465
X4.3Y-1.93
X4.3421Y-5.9595
X4.4971Y-5.9245
X4.5221Y-2.1195
X4.5371Y-3.9745
X4.5371Y-4.0145
X4.5471Y-6.1045
X4.5671Y-5.3095
X4.5871Y-6.2945
X4.5921Y-2.1195
X4.6614Y-3.9795
X4.6614Y-4.0145
X4.6621Y-5.4545
X4.7221Y-6.4295
X4.8023Y-4.6897
X4.8071Y-5.2645
X4.8521Y-3.9595
X4.8921Y-5.2645
X4.9121Y-6.0895
X5.0721Y-5.6445
X5.0921Y-6.0895
T4
X3.7283Y-1.5895
X3.7333Y-6.5345
X3.7499Y-1.5373
X3.7499Y-1.6417
X3.7549Y-6.4823
X3.7549Y-6.5867
X3.8021Y-1.5157
X3.8021Y-1.6633
X3.8071Y-6.4607
X3.8071Y-6.6083
X3.8543Y-1.5373
X3.8543Y-1.6417
X3.8593Y-6.4823
X3.8593Y-6.5867
X3.876Y-1.5895
X3.881Y-6.5345
X5.4333Y-1.5895
X5.4333Y-6.5345
X5.4549Y-1.5373
X5.4549Y-1.6417
X5.4549Y-6.4823
X5.4549Y-6.5867
X5.5071Y-1.5157
X5.5071Y-1.6633
X5.5071Y-6.4607
X5.5071Y-6.6083
X5.5593Y-1.5373
X5.5593Y-1.6417
X5.5593Y-6.4823
X5.5593Y-6.5867
X5.581Y-1.5895
X5.581Y-6.5345
T6
X3.75Y-5.645
X3.75Y-5.745
X3.75Y-5.845
X3.75Y-5.945
X3.75Y-6.045
X3.75Y-6.145
X3.75Y-6.245
X3.75Y-6.345
X3.752Y-4.944
X3.752Y-5.044
X3.752Y-5.144
X3.752Y-5.244
X4.735Y-5.645
X4.735Y-5.745
X4.735Y-5.845
X4.735Y-5.945
X4.735Y-6.045
X4.735Y-6.145
X4.735Y-6.245
X4.735Y-6.345
X4.985Y-3.625
X4.985Y-3.725
X4.985Y-3.825
X4.985Y-3.925
X4.985Y-4.025
X4.985Y-4.125
X4.985Y-4.41
X4.985Y-4.51
X4.985Y-4.61
X4.985Y-4.71
X5.24Y-1.8
X5.24Y-1.9
X5.24Y-2.0
X5.24Y-2.1
X5.24Y-2.2
X5.24Y-2.3
X5.24Y-2.4
X5.24Y-2.5
X5.24Y-2.6
X5.24Y-2.7
X5.24Y-2.8
X5.24Y-2.9
X5.24Y-3.0
X5.24Y-3.1
X5.24Y-3.2
X5.24Y-3.3
X5.335Y-3.625
X5.335Y-3.725
X5.335Y-3.825
X5.335Y-3.925
X5.335Y-4.025
X5.335Y-4.125
X5.335Y-4.41
X5.335Y-4.51
X5.335Y-4.61
X5.335Y-4.71
X5.34Y-1.8
X5.34Y-1.9
X5.34Y-2.0
X5.34Y-2.1
X5.34Y-2.2
X5.34Y-2.3
X5.34Y-2.4
X5.34Y-2.5
X5.34Y-2.6
X5.34Y-2.7
X5.34Y-2.8
X5.34Y-2.9
X5.34Y-3.0
X5.34Y-3.1
X5.34Y-3.2
X5.34Y-3.3
X5.34Y-5.01
X5.34Y-5.11
X5.34Y-5.21
X5.34Y-5.31
T7
X3.8021Y-1.5895
X3.8071Y-6.5345
X5.5071Y-1.5895
X5.5071Y-6.5345
T5
G00X4.0718Y-6.3878
M15
G01X4.0718Y-6.4311
M16
G05
G00X4.0718Y-6.5583
M15
G01X4.0718Y-6.5897
M16
G05
G00X4.412Y-6.3878
M15
G01X4.412Y-6.4311
M16
G05
G00X4.412Y-6.5583
M15
G01X4.412Y-6.5897
M16
G05
G00X4.8519Y-6.3878
M15
G01X4.8519Y-6.4311
M16
G05
G00X4.8519Y-6.5583
M15
G01X4.8519Y-6.5897
M16
G05
G00X5.1921Y-6.3878
M15
G01X5.1921Y-6.4311
M16
G05
G00X5.1921Y-6.5583
M15
G01X5.1921Y-6.5897
M16
G05
T0
M30
