%TF.GenerationSoftware,KiCad,Pcbnew,7.0.8*%
%TF.CreationDate,2024-03-21T14:49:46+01:00*%
%TF.ProjectId,so-dimm-debugger-programmer,736f2d64-696d-46d2-9d64-656275676765,REV.02*%
%TF.SameCoordinates,Original*%
%TF.FileFunction,Paste,Top*%
%TF.FilePolarity,Positive*%
%FSLAX46Y46*%
G04 Gerber Fmt 4.6, Leading zero omitted, Abs format (unit mm)*
G04 Created by KiCad (PCBNEW 7.0.8) date 2024-03-21 14:49:46*
%MOMM*%
%LPD*%
G01*
G04 APERTURE LIST*
G04 Aperture macros list*
%AMRoundRect*
0 Rectangle with rounded corners*
0 $1 Rounding radius*
0 $2 $3 $4 $5 $6 $7 $8 $9 X,Y pos of 4 corners*
0 Add a 4 corners polygon primitive as box body*
4,1,4,$2,$3,$4,$5,$6,$7,$8,$9,$2,$3,0*
0 Add four circle primitives for the rounded corners*
1,1,$1+$1,$2,$3*
1,1,$1+$1,$4,$5*
1,1,$1+$1,$6,$7*
1,1,$1+$1,$8,$9*
0 Add four rect primitives between the rounded corners*
20,1,$1+$1,$2,$3,$4,$5,0*
20,1,$1+$1,$4,$5,$6,$7,0*
20,1,$1+$1,$6,$7,$8,$9,0*
20,1,$1+$1,$8,$9,$2,$3,0*%
G04 Aperture macros list end*
%ADD10RoundRect,0.200000X0.275000X-0.200000X0.275000X0.200000X-0.275000X0.200000X-0.275000X-0.200000X0*%
%ADD11R,0.375000X0.500000*%
%ADD12R,0.300000X0.650000*%
%ADD13RoundRect,0.225000X0.225000X0.375000X-0.225000X0.375000X-0.225000X-0.375000X0.225000X-0.375000X0*%
%ADD14RoundRect,0.225000X-0.250000X0.225000X-0.250000X-0.225000X0.250000X-0.225000X0.250000X0.225000X0*%
%ADD15RoundRect,0.218750X-0.256250X0.218750X-0.256250X-0.218750X0.256250X-0.218750X0.256250X0.218750X0*%
%ADD16RoundRect,0.200000X-0.275000X0.200000X-0.275000X-0.200000X0.275000X-0.200000X0.275000X0.200000X0*%
%ADD17R,2.000000X0.800000*%
%ADD18RoundRect,0.225000X-0.225000X-0.250000X0.225000X-0.250000X0.225000X0.250000X-0.225000X0.250000X0*%
%ADD19RoundRect,0.225000X0.225000X-0.225000X0.225000X0.225000X-0.225000X0.225000X-0.225000X-0.225000X0*%
%ADD20RoundRect,0.062500X0.062500X-0.337500X0.062500X0.337500X-0.062500X0.337500X-0.062500X-0.337500X0*%
%ADD21RoundRect,0.062500X0.337500X-0.062500X0.337500X0.062500X-0.337500X0.062500X-0.337500X-0.062500X0*%
%ADD22RoundRect,0.225000X0.250000X-0.225000X0.250000X0.225000X-0.250000X0.225000X-0.250000X-0.225000X0*%
%ADD23RoundRect,0.225000X0.225000X0.250000X-0.225000X0.250000X-0.225000X-0.250000X0.225000X-0.250000X0*%
%ADD24R,2.000000X0.350000*%
%ADD25R,6.800000X4.000000*%
%ADD26R,0.600000X1.150000*%
%ADD27R,0.300000X1.150000*%
%ADD28RoundRect,0.150000X-0.150000X0.512500X-0.150000X-0.512500X0.150000X-0.512500X0.150000X0.512500X0*%
%ADD29R,0.400000X0.650000*%
G04 APERTURE END LIST*
D10*
%TO.C,R9*%
X112830205Y-153973547D03*
X112830205Y-152323547D03*
%TD*%
D11*
%TO.C,U3*%
X107212705Y-159205547D03*
D12*
X107750205Y-159280547D03*
D11*
X108287705Y-159205547D03*
X108287705Y-157505547D03*
D12*
X107750205Y-157430547D03*
D11*
X107212705Y-157505547D03*
%TD*%
D13*
%TO.C,D4*%
X134926205Y-158101547D03*
X131626205Y-158101547D03*
%TD*%
D14*
%TO.C,C7*%
X105210205Y-138911547D03*
X105210205Y-140461547D03*
%TD*%
D15*
%TO.C,D3*%
X108893205Y-131978047D03*
X108893205Y-133553047D03*
%TD*%
%TO.C,D1*%
X114481205Y-132041047D03*
X114481205Y-133616047D03*
%TD*%
D16*
%TO.C,R12*%
X112830205Y-148894547D03*
X112830205Y-150544547D03*
%TD*%
D17*
%TO.C,SW2*%
X135436205Y-140512047D03*
X135436205Y-144703047D03*
%TD*%
D18*
%TO.C,C1*%
X119294205Y-132066547D03*
X120844205Y-132066547D03*
%TD*%
D16*
%TO.C,R2*%
X125656205Y-157340547D03*
X125656205Y-158990547D03*
%TD*%
D19*
%TO.C,U4*%
X106630205Y-149569547D03*
X107750205Y-149569547D03*
X108870205Y-149569547D03*
X106630205Y-148449547D03*
X107750205Y-148449547D03*
X108870205Y-148449547D03*
X106630205Y-147329547D03*
X107750205Y-147329547D03*
X108870205Y-147329547D03*
D20*
X106250205Y-150899547D03*
X106750205Y-150899547D03*
X107250205Y-150899547D03*
X107750205Y-150899547D03*
X108250205Y-150899547D03*
X108750205Y-150899547D03*
X109250205Y-150899547D03*
D21*
X110200205Y-149949547D03*
X110200205Y-149449547D03*
X110200205Y-148949547D03*
X110200205Y-148449547D03*
X110200205Y-147949547D03*
X110200205Y-147449547D03*
X110200205Y-146949547D03*
D20*
X109250205Y-145999547D03*
X108750205Y-145999547D03*
X108250205Y-145999547D03*
X107750205Y-145999547D03*
X107250205Y-145999547D03*
X106750205Y-145999547D03*
X106250205Y-145999547D03*
D21*
X105300205Y-146949547D03*
X105300205Y-147449547D03*
X105300205Y-147949547D03*
X105300205Y-148449547D03*
X105300205Y-148949547D03*
X105300205Y-149449547D03*
X105300205Y-149949547D03*
%TD*%
D22*
%TO.C,C3*%
X132870205Y-152453547D03*
X132870205Y-150903547D03*
%TD*%
D14*
%TO.C,C5*%
X111052205Y-152373547D03*
X111052205Y-153923547D03*
%TD*%
D10*
%TO.C,R10*%
X105083205Y-133653547D03*
X105083205Y-132003547D03*
%TD*%
%TO.C,R6*%
X131245205Y-144639047D03*
X131245205Y-142989047D03*
%TD*%
D16*
%TO.C,R5*%
X105591205Y-157530547D03*
X105591205Y-159180547D03*
%TD*%
D23*
%TO.C,C2*%
X121098205Y-138162547D03*
X119548205Y-138162547D03*
%TD*%
D24*
%TO.C,J1*%
X120100205Y-115075547D03*
X111900205Y-114775547D03*
X120100205Y-114475547D03*
X111900205Y-114175547D03*
X120100205Y-113875547D03*
X111900205Y-113575547D03*
X120100205Y-113275547D03*
X111900205Y-112975547D03*
X120100205Y-112675547D03*
X111900205Y-112375547D03*
X120100205Y-112075547D03*
X111900205Y-111775547D03*
X120100205Y-111475547D03*
X111900205Y-111175547D03*
X120100205Y-110875547D03*
X111900205Y-110575547D03*
X120100205Y-110275547D03*
X111900205Y-109975547D03*
X120100205Y-109675547D03*
X111900205Y-109375547D03*
X120100205Y-109075547D03*
X111900205Y-108775547D03*
X120100205Y-108475547D03*
X111900205Y-108175547D03*
X120100205Y-107875547D03*
X111900205Y-107575547D03*
X120100205Y-107275547D03*
X111900205Y-106975547D03*
X120100205Y-106675547D03*
X111900205Y-106375547D03*
X120100205Y-106075547D03*
X111900205Y-105775547D03*
X120100205Y-105475547D03*
X111900205Y-105175547D03*
X120100205Y-104875547D03*
X111900205Y-104575547D03*
X120100205Y-104275547D03*
X111900205Y-103975547D03*
X120100205Y-103675547D03*
X111900205Y-103375547D03*
X120100205Y-99475547D03*
X111900205Y-99175547D03*
X120100205Y-98875547D03*
X111900205Y-98575547D03*
X120100205Y-98275547D03*
X111900205Y-97975547D03*
X120100205Y-97675547D03*
X111900205Y-97375547D03*
X120100205Y-97075547D03*
X111900205Y-96775547D03*
X120100205Y-96475547D03*
X111900205Y-96175547D03*
X120100205Y-95875547D03*
X111900205Y-95575547D03*
X120100205Y-95275547D03*
X111900205Y-94975547D03*
X120100205Y-94675547D03*
X111900205Y-94375547D03*
X120100205Y-94075547D03*
X111900205Y-93775547D03*
X120100205Y-93475547D03*
X111900205Y-93175547D03*
X120100205Y-92875547D03*
X111900205Y-92575547D03*
X120100205Y-92275547D03*
X111900205Y-91975547D03*
X120100205Y-91675547D03*
X111900205Y-91375547D03*
X120100205Y-91075547D03*
X111900205Y-90775547D03*
X120100205Y-90475547D03*
X111900205Y-90175547D03*
X120100205Y-89875547D03*
X111900205Y-89575547D03*
X120100205Y-89275547D03*
X111900205Y-88975547D03*
X120100205Y-88675547D03*
X111900205Y-88375547D03*
X120100205Y-88075547D03*
X111900205Y-87775547D03*
X120100205Y-87475547D03*
X111900205Y-87175547D03*
X120100205Y-86875547D03*
X111900205Y-86575547D03*
X120100205Y-86275547D03*
X111900205Y-85975547D03*
X120100205Y-85675547D03*
X111900205Y-85375547D03*
X120100205Y-85075547D03*
X111900205Y-84775547D03*
X120100205Y-84475547D03*
X111900205Y-84175547D03*
X120100205Y-83875547D03*
X111900205Y-83575547D03*
X120100205Y-83275547D03*
X111900205Y-82975547D03*
X120100205Y-82675547D03*
X111900205Y-82375547D03*
X120100205Y-82075547D03*
X111900205Y-81775547D03*
X120100205Y-81475547D03*
X111900205Y-81175547D03*
X120100205Y-80875547D03*
X111900205Y-80575547D03*
X120100205Y-80275547D03*
X111900205Y-79975547D03*
X120100205Y-79675547D03*
X111900205Y-79375547D03*
X120100205Y-79075547D03*
X111900205Y-78775547D03*
X120100205Y-78475547D03*
X111900205Y-78175547D03*
X120100205Y-77875547D03*
X111900205Y-77575547D03*
X120100205Y-77275547D03*
X111900205Y-76975547D03*
X120100205Y-76675547D03*
X111900205Y-76375547D03*
X120100205Y-76075547D03*
X111900205Y-75775547D03*
X120100205Y-75475547D03*
X111900205Y-75175547D03*
X120100205Y-74875547D03*
X111900205Y-74575547D03*
X120100205Y-74275547D03*
X111900205Y-73975547D03*
X120100205Y-73675547D03*
X111900205Y-73375547D03*
X120100205Y-73075547D03*
X111900205Y-72775547D03*
X120100205Y-72475547D03*
X111900205Y-72175547D03*
X120100205Y-71875547D03*
X111900205Y-71575547D03*
X120100205Y-71275547D03*
X111900205Y-70975547D03*
X120100205Y-70675547D03*
X111900205Y-70375547D03*
X120100205Y-70075547D03*
X111900205Y-69775547D03*
X120100205Y-69475547D03*
X111900205Y-69175547D03*
X120100205Y-68875547D03*
X111900205Y-68575547D03*
X120100205Y-68275547D03*
X111900205Y-67975547D03*
X120100205Y-67675547D03*
X111900205Y-67375547D03*
X120100205Y-67075547D03*
X111900205Y-66775547D03*
X120100205Y-66475547D03*
X111900205Y-66175547D03*
X120100205Y-65875547D03*
X111900205Y-65575547D03*
X120100205Y-65275547D03*
X111900205Y-64975547D03*
X120100205Y-64675547D03*
X111900205Y-64375547D03*
X120100205Y-64075547D03*
X111900205Y-63775547D03*
X120100205Y-63475547D03*
X111900205Y-63175547D03*
X120100205Y-62875547D03*
X111900205Y-62575547D03*
X120100205Y-62275547D03*
X111900205Y-61975547D03*
X120100205Y-61675547D03*
X111900205Y-61375547D03*
X120100205Y-61075547D03*
X111900205Y-60775547D03*
X120100205Y-60475547D03*
X111900205Y-60175547D03*
X120100205Y-59875547D03*
X111900205Y-59575547D03*
X120100205Y-59275547D03*
X111900205Y-58975547D03*
X120100205Y-58675547D03*
X111900205Y-58375547D03*
X120100205Y-58075547D03*
X111900205Y-57775547D03*
X120100205Y-57475547D03*
X111900205Y-57175547D03*
X120100205Y-56875547D03*
X111900205Y-56575547D03*
X120100205Y-56275547D03*
X111900205Y-55975547D03*
X120100205Y-55675547D03*
X111900205Y-55375547D03*
X120100205Y-55075547D03*
X111900205Y-54775547D03*
X120100205Y-54475547D03*
X111900205Y-54175547D03*
X120100205Y-53875547D03*
X111900205Y-53575547D03*
X120100205Y-53275547D03*
X111900205Y-52975547D03*
X120100205Y-52675547D03*
X111900205Y-52375547D03*
X120100205Y-52075547D03*
X111900205Y-51775547D03*
D25*
X104700205Y-120425547D03*
X104700205Y-46425547D03*
%TD*%
D16*
%TO.C,R8*%
X114608205Y-152323547D03*
X114608205Y-153973547D03*
%TD*%
%TO.C,R7*%
X109782205Y-157530547D03*
X109782205Y-159180547D03*
%TD*%
D22*
%TO.C,C4*%
X132896205Y-144589047D03*
X132896205Y-143039047D03*
%TD*%
D15*
%TO.C,D2*%
X103432205Y-132041047D03*
X103432205Y-133616047D03*
%TD*%
D14*
%TO.C,C6*%
X109528205Y-152373547D03*
X109528205Y-153923547D03*
%TD*%
D10*
%TO.C,R11*%
X110671205Y-133590547D03*
X110671205Y-131940547D03*
%TD*%
D26*
%TO.C,J6*%
X124358800Y-162224600D03*
X125158800Y-162224600D03*
D27*
X126308800Y-162224600D03*
X127308800Y-162224600D03*
X127808800Y-162224600D03*
X128808800Y-162224600D03*
D26*
X130758800Y-162224600D03*
X129958800Y-162224600D03*
D27*
X129308800Y-162224600D03*
X128308800Y-162224600D03*
X126808800Y-162224600D03*
X125808800Y-162224600D03*
%TD*%
D10*
%TO.C,R3*%
X131219205Y-152503547D03*
X131219205Y-150853547D03*
%TD*%
D16*
%TO.C,R14*%
X114554000Y-136970000D03*
X114554000Y-138620000D03*
%TD*%
%TO.C,R13*%
X116459000Y-136970000D03*
X116459000Y-138620000D03*
%TD*%
D13*
%TO.C,D5*%
X114733205Y-157974547D03*
X111433205Y-157974547D03*
%TD*%
D28*
%TO.C,U1*%
X121146205Y-133977047D03*
X120196205Y-133977047D03*
X119246205Y-133977047D03*
X119246205Y-136252047D03*
X121146205Y-136252047D03*
%TD*%
D11*
%TO.C,U2*%
X127150705Y-158951547D03*
D12*
X127688205Y-159026547D03*
D11*
X128225705Y-158951547D03*
X128225705Y-157251547D03*
D12*
X127688205Y-157176547D03*
D11*
X127150705Y-157251547D03*
%TD*%
D18*
%TO.C,C8*%
X113084205Y-155561547D03*
X114634205Y-155561547D03*
%TD*%
D17*
%TO.C,SW1*%
X135436205Y-148386047D03*
X135436205Y-152577047D03*
%TD*%
D29*
%TO.C,Q1*%
X108146205Y-138863547D03*
X107496205Y-138863547D03*
X106846205Y-138863547D03*
X106846205Y-140763547D03*
X107496205Y-140763547D03*
X108146205Y-140763547D03*
%TD*%
D16*
%TO.C,R4*%
X129720205Y-157276547D03*
X129720205Y-158926547D03*
%TD*%
%TO.C,R1*%
X116259205Y-132003547D03*
X116259205Y-133653547D03*
%TD*%
D26*
%TO.C,J7*%
X104544800Y-162224600D03*
X105344800Y-162224600D03*
D27*
X106494800Y-162224600D03*
X107494800Y-162224600D03*
X107994800Y-162224600D03*
X108994800Y-162224600D03*
D26*
X110944800Y-162224600D03*
X110144800Y-162224600D03*
D27*
X109494800Y-162224600D03*
X108494800Y-162224600D03*
X106994800Y-162224600D03*
X105994800Y-162224600D03*
%TD*%
M02*
